# xmcd
#
# Track frame offsets: 
#        150
#        11724
#        27501
#        45261
#        62550
#        76724
#        89227
#        108438
#        122751
#        143590
#        159618
#
# Disc length: 2387 seconds
#
# Revision: 0
# Processed by: cddbd v1.5.2PL0 Copyright (c) Steve Scherf et al.
# Submitted via: ExactAudioCopyFreeDBPlugin 1.0
#
DISCID=8709510b
DTITLE=BalticSeaChild - BalticSeaChild
DYEAR=2015
DGENRE=Country
TTITLE0=Devils Love
TTITLE1=BalticSeaChild
TTITLE2=Rocketman
TTITLE3=The Long Stony Way To Paradise
TTITLE4=The Luck Of The Irish
TTITLE5=Searching For A Rose
TTITLE6=Hard Times
TTITLE7=Fool In The Rain
TTITLE8=Hand In Hand
TTITLE9=Fiona
TTITLE10=Last Poet
EXTD=
EXTT0=
EXTT1=
EXTT2=
EXTT3=
EXTT4=
EXTT5=
EXTT6=
EXTT7=
EXTT8=
EXTT9=
EXTT10=
PLAYORDER=
